<svg width="60" height="56" viewBox="0 0 60 56" fill="none" xmlns="http://www.w3.org/2000/svg">
<path fill-rule="evenodd" clip-rule="evenodd" d="M30.7411 12.6776C28.0299 12.4856 25.2209 13.0289 22.8118 14.1575C19.9584 15.4945 17.318 17.5608 15.6907 20.1789C14.0577 22.8066 13.2715 26.0003 13.6488 29.0313C14.1 32.6548 15.7424 36.4638 18.7536 39.0239C21.9923 41.7776 26.6536 43.5718 31.141 43.2881C35.6954 43.0002 40.0606 40.5718 42.9243 37.4346C45.3522 34.775 46.4234 31.1579 46.4466 27.8012C46.4616 24.004 45.5204 19.6505 42.4692 16.7345C39.4316 13.8317 34.7625 12.9658 30.7411 12.6815V12.6776ZM30.5709 14.673C34.3651 14.9413 38.5026 15.8305 40.8952 18.1171C43.3312 20.4449 44.2823 24.3161 44.2686 27.7895C44.2481 30.7551 43.2525 33.9637 41.2568 36.1499C38.7478 38.8986 34.779 41.053 30.9878 41.2927C27.2523 41.5288 23.0422 39.9474 20.2339 37.5596C17.7347 35.4347 16.2115 32.0311 15.8098 28.8048C15.492 26.2517 16.1785 23.421 17.5795 21.1668C18.9439 18.9714 21.2745 17.121 23.7987 15.9382C25.844 14.9801 28.2958 14.512 30.5709 14.673Z" fill="#1188EE"/>
<path fill-rule="evenodd" clip-rule="evenodd" d="M32.0769 0.0526661C23.9609 -0.460157 15.3876 2.81909 9.48012 7.83916C4.03715 12.4646 0.99586 19.4511 0.168286 26.0946C-0.515977 31.5875 0.918315 37.4421 3.89047 42.2218C6.83835 46.9622 11.6725 50.7509 16.899 53.1985C21.274 55.2472 26.4081 56.236 31.3197 55.889C38.7902 55.3611 47.3424 53.7225 52.7765 48.5321C58.2499 43.3047 60.0273 35.3229 59.9997 28.3204C59.9592 22.1763 57.9775 15.5519 53.5975 10.7561C48.3626 5.0243 40.3144 0.577513 32.0769 0.056693V0.0526661ZM31.9281 2.04429C39.4027 2.51692 47.0456 6.69357 51.9257 12.0369C55.8736 16.3594 57.7838 22.5758 57.8217 28.3282C57.848 35.0069 56.0647 42.5063 51.2068 47.1459C46.4178 51.7201 38.3929 53.3856 31.1496 53.8975C26.6736 54.2137 21.9013 53.2962 17.8901 51.4178C12.9928 49.1246 8.46834 45.5475 5.78346 41.23C3.04357 36.8237 1.70881 31.3359 2.33353 26.3211C3.11158 20.075 6.0296 13.4978 10.9605 9.3074C16.4375 4.65321 24.5637 1.57885 31.9281 2.04429Z" fill="#1188EE"/>
<path fill-rule="evenodd" clip-rule="evenodd" d="M17.4392 3.67249L15.559 4.68385L22.6375 15.805L24.5177 14.7936L17.4392 3.67249Z" fill="#1188EE"/>
<path fill-rule="evenodd" clip-rule="evenodd" d="M43.9071 4.25043L36.4202 14.6218L38.2323 15.7269L45.7192 5.35551L43.9071 4.25043Z" fill="#1188EE"/>
<path fill-rule="evenodd" clip-rule="evenodd" d="M53.9166 13.3176L43.0266 19.3156L44.1496 21.0298L55.0397 15.0319L53.9166 13.3176Z" fill="#1188EE"/>
<path fill-rule="evenodd" clip-rule="evenodd" d="M44.5537 32.932L43.4392 34.6502L56.235 41.6477L57.3495 39.9296L44.5537 32.932Z" fill="#1188EE"/>
<path fill-rule="evenodd" clip-rule="evenodd" d="M39.5766 39.3282L37.5262 40.0037L42.4268 52.4994L44.4772 51.8239L39.5766 39.3282Z" fill="#1188EE"/>
<path fill-rule="evenodd" clip-rule="evenodd" d="M21.4123 40.0389L14.606 50.7852L16.4863 51.7887L23.2925 41.0424L21.4123 40.0389Z" fill="#1188EE"/>
<path fill-rule="evenodd" clip-rule="evenodd" d="M16.3757 33.5451L4.2605 39.7929L5.32398 41.5384L17.4391 35.2906L16.3757 33.5451Z" fill="#1188EE"/>
<path fill-rule="evenodd" clip-rule="evenodd" d="M5.36657 13.8761L4.32861 15.6333L15.627 21.2564L16.665 19.4992L5.36657 13.8761Z" fill="#1188EE"/>
<path fill-rule="evenodd" clip-rule="evenodd" d="M7.06384 17.4181C6.94019 17.4139 6.81867 17.4486 6.71927 17.5162L2.15907 20.5152C2.04172 20.5929 1.96279 20.7102 1.93965 20.8413C1.9165 20.9724 1.95103 21.1065 2.03565 21.2142C2.12027 21.3219 2.24803 21.3943 2.39084 21.4155C2.53365 21.4368 2.67981 21.4051 2.79716 21.3274L7.35736 18.3285C7.45146 18.2685 7.52257 18.1829 7.56057 18.0837C7.59857 17.9845 7.60153 17.8767 7.56901 17.7759C7.5365 17.6751 7.47018 17.5863 7.37948 17.5221C7.28879 17.4579 7.17833 17.4214 7.06384 17.4181Z" fill="#1188EE"/>
<path fill-rule="evenodd" clip-rule="evenodd" d="M7.7999 18.9797C7.65785 18.9775 7.52046 19.0262 7.41705 19.1157L1.35946 24.2389C1.30666 24.2835 1.26396 24.3373 1.23378 24.3971C1.2036 24.4568 1.18654 24.5214 1.18357 24.5872C1.18061 24.653 1.19179 24.7186 1.2165 24.7805C1.2412 24.8423 1.27893 24.8992 1.32753 24.9476C1.37614 24.9961 1.43467 25.0354 1.49978 25.0631C1.56489 25.0908 1.63531 25.1063 1.707 25.109C1.7787 25.1117 1.85028 25.1014 1.91765 25.0787C1.98502 25.056 2.04686 25.0213 2.09965 24.9767L8.15723 19.8535C8.23997 19.7864 8.29858 19.6982 8.3253 19.5999C8.35201 19.5016 8.34557 19.398 8.30682 19.3031C8.26808 19.2083 8.19886 19.1265 8.10833 19.0686C8.01781 19.0107 7.91025 18.9803 7.7999 18.9797Z" fill="#1188EE"/>
<path fill-rule="evenodd" clip-rule="evenodd" d="M8.64214 21.1668C8.52042 21.1745 8.40507 21.2195 8.31459 21.2947L0.487373 27.6052C0.43047 27.6475 0.383425 27.6997 0.349048 27.759C0.31467 27.8183 0.293666 27.8834 0.287289 27.9503C0.280912 28.0172 0.289293 28.0846 0.311933 28.1485C0.334573 28.2124 0.371006 28.2714 0.419057 28.322C0.467107 28.3727 0.525789 28.4139 0.591596 28.4433C0.657404 28.4727 0.728988 28.4897 0.802071 28.4931C0.875155 28.4965 0.948239 28.4864 1.01696 28.4633C1.08568 28.4402 1.14862 28.4046 1.20203 28.3586L9.0335 22.0486C9.12235 21.9807 9.18535 21.8884 9.21339 21.7855C9.24143 21.6825 9.23305 21.574 9.18946 21.4758C9.14587 21.3775 9.06934 21.2945 8.97094 21.2388C8.87254 21.1831 8.75739 21.1584 8.64214 21.1668Z" fill="#1188EE"/>
<path fill-rule="evenodd" clip-rule="evenodd" d="M9.09726 23.6031C8.95582 23.5997 8.81851 23.6469 8.71441 23.7349L1.02332 30.1077C0.916173 30.1967 0.851953 30.3215 0.844787 30.454C0.837621 30.5865 0.888095 30.7161 0.985109 30.8145C1.08212 30.9128 1.21773 30.9719 1.36211 30.9785C1.50649 30.9851 1.64781 30.9386 1.755 30.8496L9.44609 24.4768C9.52833 24.4102 9.58676 24.3225 9.61374 24.2249C9.64071 24.1274 9.63498 24.0246 9.59729 23.9301C9.5596 23.8356 9.4917 23.7539 9.40248 23.6953C9.31327 23.6368 9.20689 23.6052 9.09726 23.6031Z" fill="#1188EE"/>
<path fill-rule="evenodd" clip-rule="evenodd" d="M9.8714 26.0398C9.75021 26.0464 9.63493 26.0901 9.54385 26.1638L1.24019 32.724C1.1844 32.7664 1.13836 32.8184 1.10479 32.8773C1.07122 32.9362 1.05078 33.0007 1.04467 33.0669C1.03856 33.1331 1.0469 33.1999 1.06921 33.2631C1.09151 33.3264 1.12734 33.3848 1.17458 33.4352C1.22182 33.4855 1.27953 33.5268 1.34434 33.5565C1.40915 33.5861 1.47975 33.6037 1.55201 33.608C1.62427 33.6123 1.69674 33.6033 1.76518 33.5816C1.83362 33.5599 1.89666 33.5259 1.9506 33.4815L10.2543 26.9213C10.3423 26.8538 10.4048 26.7625 10.433 26.6604C10.4611 26.5583 10.4534 26.4507 10.411 26.3529C10.3685 26.2551 10.2935 26.1718 10.1966 26.1154C10.0997 26.0591 9.9859 26.0333 9.8714 26.0398Z" fill="#1188EE"/>
<path fill-rule="evenodd" clip-rule="evenodd" d="M10.8243 28.8513C10.7016 28.8571 10.5847 28.9008 10.4925 28.9753L2.12076 35.598C2.01135 35.685 1.94407 35.8084 1.93371 35.9409C1.92336 36.0734 1.97077 36.2041 2.06553 36.3045C2.16029 36.405 2.29463 36.4668 2.43901 36.4764C2.58339 36.4859 2.72598 36.4425 2.83542 36.3555L11.2071 29.7328C11.2952 29.6653 11.3577 29.5738 11.3859 29.4717C11.414 29.3696 11.4063 29.262 11.3639 29.1642C11.3214 29.0663 11.2464 28.9833 11.1495 28.927C11.0526 28.8706 10.9388 28.8448 10.8243 28.8513Z" fill="#1188EE"/>
<path fill-rule="evenodd" clip-rule="evenodd" d="M11.4453 31.9753C11.3229 31.9805 11.206 32.0233 11.1135 32.0971L3.15018 38.2199C3.09515 38.262 3.04969 38.3138 3.01638 38.372C2.98307 38.4302 2.96258 38.4937 2.95606 38.5592C2.94954 38.6246 2.95713 38.6905 2.9784 38.7532C2.99967 38.816 3.03419 38.8743 3.08001 38.9248C3.12582 38.9753 3.18202 39.0172 3.2454 39.0478C3.30878 39.0784 3.3781 39.097 3.4494 39.1029C3.5207 39.1089 3.59259 39.102 3.66095 39.0824C3.72931 39.0629 3.79281 39.0313 3.84783 38.9892L11.8112 32.8663C11.9013 32.8004 11.9663 32.7101 11.9969 32.6081C12.0275 32.5062 12.0221 32.3979 11.9814 32.2989C11.9408 32.1999 11.867 32.1153 11.7706 32.0573C11.6743 31.9993 11.5604 31.9701 11.4453 31.9753Z" fill="#1188EE"/>
</svg>
