<svg width="56" height="60" viewBox="0 0 56 60" fill="none" xmlns="http://www.w3.org/2000/svg">
<path fill-rule="evenodd" clip-rule="evenodd" d="M27.871 13.1171C24.8364 13.0871 21.798 13.281 18.8152 13.7341C15.2122 14.2801 11.3594 15.1243 8.19228 17.1508C5.66412 18.7687 3.84087 21.1312 2.49005 23.508C1.09415 25.964 0.167501 28.7369 0.0339723 31.5443C-0.156528 35.5181 0.426345 39.7713 2.49005 43.4152C5.71695 49.113 10.7509 54.602 17.2952 57.3596C22.1876 59.4213 28.0271 59.3887 33.1223 58.3007C39.2037 57.0021 45.1883 54.0411 49.3617 49.7411C52.983 46.0098 54.8731 41.0164 55.6693 36.2341C56.3132 32.3666 56.0884 28.1416 54.3554 24.4491C52.9524 21.4597 50.4019 18.9229 47.5024 17.1391C44.3073 15.1738 40.4722 14.4056 36.9009 13.859C33.9337 13.4048 30.9055 13.1477 27.871 13.1171ZM27.8452 15.1164C30.7595 15.1464 33.6767 15.3933 36.5359 15.831C40.0203 16.3644 43.5387 17.1148 46.2701 18.7948C48.8597 20.3881 51.1344 22.6803 52.333 25.234C53.8523 28.4713 54.0931 32.3548 53.4966 35.9373C52.7443 40.456 50.9366 45.0996 47.7128 48.4213C43.9014 52.3483 38.2858 55.1461 32.62 56.356C27.8859 57.3669 22.4869 57.3463 18.2184 55.5477C12.3014 53.0544 7.50529 47.9072 4.44375 42.5015C2.62455 39.2892 2.05358 35.3607 2.23242 31.6302C2.34951 29.1683 3.17645 26.6553 4.44375 24.4257C5.69413 22.2254 7.35411 20.1341 9.45896 18.787C12.1679 17.0538 15.6921 16.234 19.1759 15.706C22.0213 15.275 24.9309 15.0872 27.8452 15.1164Z" fill="#1188EE"/>
<path fill-rule="evenodd" clip-rule="evenodd" d="M3.66654 23.0826C3.44827 23.094 3.23873 23.1645 3.06469 23.2849C2.89065 23.4052 2.76002 23.5699 2.6895 23.7581C2.61898 23.9463 2.61176 24.1494 2.66878 24.3414C2.72579 24.5333 2.84445 24.7055 3.00959 24.8359C3.00959 24.8359 4.03899 25.672 5.37979 26.6165C6.72058 27.5608 8.33256 28.6236 9.79815 29.1469C16.0073 31.3631 22.8407 31.6406 29.3094 31.5874C42.9942 31.4755 53.5782 26.2455 53.5782 26.2455C53.7088 26.1849 53.8248 26.1011 53.9193 25.999C54.0138 25.897 54.0849 25.7789 54.1284 25.6515C54.1718 25.5241 54.1869 25.3901 54.1725 25.2573C54.1582 25.1246 54.1148 24.9958 54.0449 24.8786C53.9749 24.7613 53.8799 24.6578 53.7654 24.5745C53.6509 24.4911 53.5192 24.4295 53.3781 24.3931C53.237 24.3568 53.0893 24.3465 52.9437 24.3629C52.7981 24.3792 52.6576 24.4218 52.5305 24.4883C52.5305 24.4883 42.3674 29.4806 29.2879 29.5881C22.9062 29.6401 16.3546 29.3379 10.6011 27.2842C9.61829 26.9336 8.00413 25.9339 6.72805 25.035C5.45198 24.1363 4.47379 23.3442 4.47379 23.3442C4.36534 23.2537 4.238 23.1839 4.09934 23.1389C3.96067 23.094 3.8135 23.0748 3.66654 23.0826Z" fill="#1188EE"/>
<path fill-rule="evenodd" clip-rule="evenodd" d="M54.2738 30.205C53.9888 30.2152 53.7194 30.3259 53.5224 30.5134C53.5224 30.5134 53.0267 30.9712 52.3802 31.5092C51.7337 32.0474 50.906 32.6702 50.4523 32.9071C47.7767 34.3049 44.7021 35.1818 41.5941 35.7304C38.9385 36.1994 32.7659 36.0857 32.7659 36.0857C32.6216 36.0821 32.4778 36.1043 32.3429 36.1511C32.2079 36.198 32.0845 36.2688 31.9795 36.3591C31.8746 36.4494 31.7903 36.5576 31.7314 36.6776C31.6725 36.7975 31.6401 36.9267 31.6362 37.0581C31.6322 37.1894 31.6567 37.3202 31.7084 37.4429C31.76 37.5656 31.8377 37.6778 31.937 37.7731C32.0364 37.8685 32.1554 37.9451 32.2873 37.9986C32.4192 38.0522 32.5614 38.0815 32.7058 38.085C32.7058 38.085 38.7294 38.275 42.0149 37.6946C45.2863 37.1172 48.5877 36.187 51.5472 34.6409C52.3484 34.2223 53.1725 33.5664 53.8659 32.9892C54.5593 32.4119 55.0897 31.919 55.0897 31.919C55.2474 31.7773 55.3543 31.5956 55.3964 31.3977C55.4385 31.1997 55.4138 30.9949 55.3256 30.81C55.2374 30.625 55.0897 30.4687 54.902 30.3614C54.7143 30.2541 54.4953 30.2009 54.2738 30.2089L54.2738 30.205Z" fill="#1188EE"/>
<path fill-rule="evenodd" clip-rule="evenodd" d="M53.3807 38.8503C53.2079 38.855 53.0387 38.8969 52.8869 38.9723C52.8869 38.9723 47.1485 41.6527 44.3851 42.3735C42.5329 42.8565 38.0088 43.213 38.0088 43.213C37.7178 43.2337 37.4478 43.3586 37.2581 43.5603C37.0685 43.7621 36.9747 44.0242 36.9975 44.2888C37.0203 44.5535 37.1577 44.799 37.3796 44.9715C37.6014 45.1439 37.8895 45.2291 38.1805 45.2084C38.1805 45.2084 42.5716 44.9255 44.9906 44.2947C48.3208 43.426 53.9046 40.7451 53.9046 40.7451C54.1288 40.6434 54.3081 40.4753 54.4128 40.2682C54.5174 40.0612 54.5412 39.8276 54.48 39.6066C54.4189 39.3856 54.2766 39.1902 54.0767 39.0528C53.8767 38.9155 53.6312 38.8434 53.3807 38.8503Z" fill="#1188EE"/>
<path fill-rule="evenodd" clip-rule="evenodd" d="M28.4634 17.4048C26.443 17.4248 23.8579 17.4627 21.3957 17.6313C18.9321 17.7992 16.6223 18.0698 14.955 18.6622C11.7783 19.7914 10.2403 21.9228 10.2403 21.9228C10.161 22.0338 10.1067 22.1581 10.0806 22.2884C10.0545 22.4186 10.0571 22.5522 10.0883 22.6815C10.1194 22.8109 10.1785 22.9331 10.2621 23.0415C10.3457 23.1499 10.4522 23.2422 10.5753 23.3129C10.5753 23.3129 15.524 26.1975 20.0732 27.0694C24.535 27.9249 31.8843 27.9593 36.3856 27.1314C40.9778 26.2873 46.0896 23.3786 46.0896 23.3786C46.2377 23.2954 46.3619 23.1817 46.4521 23.0464C46.5423 22.9111 46.5959 22.7581 46.6085 22.6003C46.6211 22.4425 46.5923 22.2843 46.5245 22.1385C46.4567 21.9928 46.3518 21.8636 46.2185 21.7619C46.2185 21.7619 42.9769 19.2056 39.7348 18.2632C36.5842 17.3475 32.4989 17.3719 28.4677 17.4041L28.4634 17.4048ZM28.485 19.4041C32.5008 19.3721 36.477 19.4241 39.065 20.1695C40.9091 20.7055 42.2512 21.7563 43.303 22.4773C41.6339 23.315 38.8065 24.647 35.952 25.1717C31.9492 25.9074 24.4943 25.8733 20.5285 25.1136C17.558 24.5442 14.6303 23.096 13.1216 22.3101C13.5945 21.7975 13.9273 21.1747 15.7537 20.5256C16.9481 20.1011 19.1832 19.79 21.559 19.6274C23.9348 19.4655 26.4817 19.4201 28.485 19.4041Z" fill="#1188EE"/>
<path fill-rule="evenodd" clip-rule="evenodd" d="M17.9823 8.86456L15.8826 9.4542L21.5849 26.3234L23.6845 25.7337L17.9823 8.86456Z" fill="#1188EE"/>
<path fill-rule="evenodd" clip-rule="evenodd" d="M47.3521 4.09278C47.2163 4.09634 47.0823 4.12278 46.9571 4.17075L37.6137 7.60706C37.4404 7.67108 37.2879 7.77421 37.1707 7.90677C37.0535 8.03933 36.9754 8.19695 36.9438 8.36462L33.5732 26.046C33.5486 26.1755 33.5524 26.3081 33.5842 26.4363C33.616 26.5644 33.6753 26.6857 33.7587 26.7931C33.927 27.0098 34.183 27.1568 34.4706 27.2019C34.613 27.2242 34.7588 27.2208 34.8997 27.1918C35.0406 27.1629 35.1739 27.109 35.2919 27.0332C35.5303 26.8802 35.692 26.6472 35.7415 26.3857L39.0049 9.25103L47.7815 6.02558C48.0244 5.94106 48.2264 5.78103 48.3518 5.57383C48.4771 5.36663 48.5177 5.1257 48.4662 4.89389C48.4147 4.66208 48.2745 4.45436 48.0705 4.30767C47.8666 4.16097 47.612 4.08492 47.3521 4.09278Z" fill="#1188EE"/>
<path fill-rule="evenodd" clip-rule="evenodd" d="M15.5906 2.59732C15.4355 2.60258 15.2834 2.63773 15.1443 2.70031C15.0051 2.76289 14.8821 2.85155 14.7834 2.96047L7.70714 10.7078C7.55938 10.8705 7.47202 11.0714 7.45758 11.2821C7.44313 11.4927 7.50235 11.7021 7.62673 11.8802C7.75112 12.0584 7.93431 12.1962 8.15006 12.2739C8.36581 12.3516 8.60306 12.3651 8.82783 12.3127L26.3467 8.18913C26.5723 8.1359 26.7735 8.01902 26.9212 7.85502C27.0688 7.69102 27.1554 7.48849 27.1683 7.27685C27.1812 7.06521 27.1198 6.85528 26.9929 6.67745C26.8661 6.49961 26.6804 6.36303 26.4626 6.28745L16.02 2.6637C15.8832 2.61589 15.7372 2.59305 15.5906 2.59732ZM15.9728 4.78394L22.4608 7.03719L11.5759 9.5988L15.9728 4.78394Z" fill="#1188EE"/>
<path fill-rule="evenodd" clip-rule="evenodd" d="M14.7534 0.000779393C14.581 0.0069685 14.4126 0.0498992 14.2619 0.126224C14.1112 0.202549 13.9823 0.310076 13.8858 0.440081C13.7892 0.570085 13.7276 0.71897 13.706 0.874623C13.6844 1.03028 13.7034 1.18839 13.7615 1.33613L14.6546 3.73362C14.699 3.86008 14.7706 3.97721 14.8653 4.07823C14.9599 4.17925 15.0758 4.26217 15.2061 4.32204C15.3363 4.38191 15.4784 4.41758 15.624 4.42698C15.7696 4.43639 15.9158 4.41935 16.054 4.37683C16.1923 4.33431 16.3199 4.26722 16.4293 4.17939C16.5388 4.09156 16.6279 3.98477 16.6915 3.86529C16.755 3.74581 16.7918 3.61601 16.7997 3.48346C16.8075 3.35092 16.7862 3.21821 16.7371 3.09322L15.844 0.69573C15.7708 0.487332 15.6246 0.306423 15.4276 0.180893C15.2305 0.0553628 14.9937 -0.00784951 14.7534 0.000779393Z" fill="#1188EE"/>
<path fill-rule="evenodd" clip-rule="evenodd" d="M7.71981 31.1538C7.61562 31.161 7.51583 31.1951 7.43212 31.252L1.01712 35.4029C0.958192 35.4411 0.908119 35.4893 0.869756 35.5451C0.831392 35.601 0.805491 35.663 0.793529 35.7279C0.781568 35.7929 0.783781 35.8593 0.800043 35.9234C0.816305 35.9876 0.846296 36.0483 0.888305 36.1018C0.930314 36.1554 0.983517 36.2009 1.04488 36.2358C1.10624 36.2707 1.17455 36.2943 1.24592 36.3051C1.3173 36.316 1.39032 36.3141 1.46084 36.2993C1.53135 36.2845 1.59798 36.2572 1.6569 36.219L8.06761 32.0642C8.1664 32.002 8.24006 31.912 8.27733 31.8082C8.3146 31.7043 8.31342 31.5921 8.27397 31.4889C8.23452 31.3857 8.15897 31.2973 8.05889 31.2368C7.95881 31.1764 7.83971 31.1469 7.71981 31.1538Z" fill="#1188EE"/>
<path fill-rule="evenodd" clip-rule="evenodd" d="M9.83233 33.3642C9.72827 33.3755 9.62995 33.4138 9.54894 33.4742L2.26229 38.6875C2.20107 38.7265 2.14924 38.7764 2.10996 38.8342C2.07069 38.892 2.04479 38.9566 2.03386 39.0238C2.02293 39.0911 2.0272 39.1595 2.04639 39.2252C2.06559 39.2909 2.09932 39.3524 2.14551 39.4058C2.19171 39.4592 2.2494 39.5037 2.31507 39.5361C2.38073 39.5686 2.45299 39.5885 2.52742 39.5947C2.60184 39.6009 2.67688 39.5933 2.74795 39.5722C2.81901 39.5512 2.8846 39.5171 2.94071 39.4722L10.2274 34.2591C10.3229 34.1928 10.392 34.0998 10.4239 33.9943C10.4557 33.8889 10.4487 33.7768 10.4039 33.6754C10.3591 33.5739 10.2789 33.4886 10.1757 33.4325C10.0724 33.3765 9.95182 33.3519 9.83233 33.3642Z" fill="#1188EE"/>
<path fill-rule="evenodd" clip-rule="evenodd" d="M12.7782 35.219C12.6543 35.2248 12.5363 35.2685 12.4432 35.343L3.60222 42.2352C3.5459 42.2775 3.49943 42.3298 3.46554 42.3887C3.43165 42.4476 3.41102 42.5121 3.40485 42.5783C3.39869 42.6445 3.40711 42.711 3.42962 42.7743C3.45214 42.8375 3.4883 42.8962 3.53598 42.9466C3.58367 42.997 3.64193 43.0382 3.70734 43.0679C3.77276 43.0975 3.84402 43.1148 3.91696 43.1191C3.9899 43.1234 4.06305 43.1145 4.13213 43.0928C4.20122 43.0711 4.26484 43.0371 4.31929 42.9927L13.1603 36.1015C13.2488 36.0342 13.3117 35.9433 13.3402 35.8416C13.3687 35.74 13.3612 35.6327 13.319 35.5351C13.2767 35.4375 13.2017 35.3543 13.1047 35.2976C13.0076 35.2409 12.8934 35.2134 12.7782 35.219Z" fill="#1188EE"/>
<path fill-rule="evenodd" clip-rule="evenodd" d="M15.0109 37.9561C14.8865 37.963 14.7684 38.008 14.6759 38.084L5.54292 45.3276C5.48584 45.3699 5.4387 45.4221 5.40431 45.4813C5.36991 45.5406 5.34896 45.6057 5.34269 45.6724C5.33642 45.7392 5.34497 45.8062 5.36783 45.8699C5.39069 45.9335 5.42739 45.9924 5.47575 46.0429C5.52411 46.0934 5.58314 46.1348 5.64934 46.1642C5.71554 46.1936 5.78756 46.2104 5.86112 46.214C5.93467 46.2175 6.00827 46.2078 6.07753 46.1849C6.14679 46.1621 6.2103 46.1268 6.26429 46.0812L15.3973 38.8376C15.4862 38.7701 15.5493 38.6786 15.5777 38.5765C15.6061 38.4744 15.5983 38.3668 15.5555 38.269C15.5126 38.1711 15.4369 38.0881 15.3391 38.0318C15.2413 37.9754 15.1264 37.9496 15.0109 37.9561Z" fill="#1188EE"/>
<path fill-rule="evenodd" clip-rule="evenodd" d="M17.4541 40.4319C17.3296 40.4351 17.21 40.4766 17.1149 40.5498L7.11025 48.0591C6.99751 48.1435 6.92626 48.2652 6.91218 48.3974C6.89809 48.5296 6.94232 48.6612 7.03513 48.7637C7.12794 48.8662 7.26173 48.9313 7.40708 48.9441C7.55242 48.9569 7.69741 48.9165 7.81015 48.8321L17.8148 41.3229C17.905 41.2574 17.9703 41.1678 18.0013 41.0667C18.0324 40.9655 18.0276 40.8579 17.9877 40.7594C17.9478 40.6609 17.8747 40.5762 17.779 40.5175C17.6832 40.4589 17.5695 40.4285 17.4541 40.4319Z" fill="#1188EE"/>
<path fill-rule="evenodd" clip-rule="evenodd" d="M19.7728 43.5246C19.6676 43.5298 19.5662 43.5624 19.4808 43.6185L9.17989 50.2451C9.12095 50.2831 9.07081 50.3311 9.03233 50.3867C8.99385 50.4423 8.96778 50.5043 8.95561 50.569C8.94345 50.6337 8.94542 50.7 8.96142 50.764C8.97742 50.828 9.00713 50.8886 9.04887 50.9422C9.0906 50.9958 9.14353 51.0414 9.20463 51.0764C9.26574 51.1114 9.33383 51.1349 9.40501 51.146C9.47618 51.157 9.54906 51.1554 9.61947 51.1408C9.68988 51.1263 9.75645 51.0992 9.81538 51.0613L20.1163 44.4346C20.2147 44.3726 20.2881 44.283 20.3254 44.1796C20.3627 44.0762 20.3618 43.9646 20.323 43.8616C20.2841 43.7586 20.2093 43.67 20.11 43.6093C20.0107 43.5485 19.8923 43.5186 19.7728 43.5246Z" fill="#1188EE"/>
<path fill-rule="evenodd" clip-rule="evenodd" d="M22.7227 45.2895C22.5983 45.2885 22.4772 45.3258 22.3791 45.3954L12.7609 52.0223C12.6448 52.1026 12.5685 52.2213 12.5488 52.3527C12.529 52.4842 12.5675 52.6174 12.6558 52.723C12.744 52.8286 12.8748 52.8981 13.0194 52.916C13.1639 52.934 13.3103 52.8989 13.4265 52.8186L23.0447 46.1923C23.1375 46.13 23.2064 46.0427 23.2417 45.9428C23.277 45.843 23.2768 45.7354 23.2411 45.6356C23.2055 45.5358 23.1363 45.4487 23.0432 45.3866C22.9502 45.3246 22.838 45.2903 22.7227 45.2895Z" fill="#1188EE"/>
<path fill-rule="evenodd" clip-rule="evenodd" d="M25.6468 47.1444C25.5224 47.1433 25.4013 47.1806 25.3033 47.2503L14.9036 54.2283C14.8442 54.2668 14.7938 54.3157 14.7553 54.3721C14.7169 54.4285 14.6912 54.4911 14.6797 54.5566C14.6682 54.6221 14.6712 54.6891 14.6885 54.7536C14.7057 54.818 14.7369 54.8788 14.7802 54.9322C14.8236 54.9856 14.8781 55.0305 14.9408 55.0645C15.0034 55.0985 15.0729 55.121 15.1451 55.1304C15.2173 55.1397 15.2909 55.1357 15.3615 55.1189C15.4321 55.1021 15.4983 55.0728 15.5562 55.0325L25.9559 48.0508C26.0498 47.9896 26.12 47.9031 26.1568 47.8036C26.1936 47.704 26.1949 47.5966 26.1607 47.4963C26.1265 47.396 26.0585 47.308 25.9662 47.2449C25.874 47.1818 25.7622 47.1465 25.6468 47.1444Z" fill="#1188EE"/>
<path fill-rule="evenodd" clip-rule="evenodd" d="M28.5708 49.265C28.4271 49.2596 28.2869 49.3054 28.18 49.3929L19.7298 56.1096C19.6727 56.1519 19.6255 56.2041 19.5911 56.2633C19.5567 56.3226 19.5358 56.3877 19.5295 56.4544C19.5233 56.5212 19.5318 56.5882 19.5547 56.6519C19.5775 56.7155 19.6142 56.7744 19.6626 56.8249C19.7109 56.8754 19.77 56.9168 19.8362 56.9462C19.9024 56.9756 19.9744 56.9924 20.0479 56.996C20.1215 56.9995 20.1951 56.9898 20.2644 56.9669C20.3336 56.9441 20.3971 56.9088 20.4511 56.8632L28.9057 50.1468C28.9909 50.0818 29.0524 49.9946 29.0821 49.8971C29.1118 49.7996 29.1082 49.6965 29.0719 49.6008C29.0356 49.5052 28.9683 49.4217 28.8788 49.3617C28.7894 49.3016 28.6819 49.2684 28.5708 49.265Z" fill="#1188EE"/>
<path fill-rule="evenodd" clip-rule="evenodd" d="M32.1132 51.6506C31.9706 51.6578 31.8366 51.715 31.7397 51.8105L25.5222 57.7306C25.4723 57.778 25.4332 57.8339 25.407 57.895C25.3809 57.9562 25.3682 58.0215 25.3698 58.0871C25.3714 58.1528 25.3872 58.2174 25.4163 58.2775C25.4454 58.3376 25.4872 58.392 25.5394 58.4373C25.5915 58.4827 25.653 58.5183 25.7203 58.542C25.7876 58.5658 25.8594 58.5772 25.9315 58.5757C26.0037 58.5743 26.0748 58.56 26.1409 58.5335C26.207 58.507 26.2667 58.4692 26.3166 58.4217L32.534 52.5016C32.6124 52.4299 32.6649 52.3383 32.6848 52.2388C32.7047 52.1393 32.6909 52.0367 32.6453 51.9445C32.5998 51.8523 32.5245 51.7749 32.4295 51.7224C32.3345 51.6699 32.2242 51.645 32.1132 51.6506Z" fill="#1188EE"/>
</svg>
