<svg width="13" height="24" viewBox="0 0 13 24" fill="none" xmlns="http://www.w3.org/2000/svg">
<path fill-rule="evenodd" clip-rule="evenodd" d="M5.96088 0.172772C6.28338 -0.0575908 6.71661 -0.0575908 7.03915 0.172772C11.0566 3.04239 12.8779 6.48255 12.9926 11.4183C13.0456 13.7751 12.8187 15.9331 12.1283 17.7973C11.4201 19.6626 10.1607 21.386 8.30668 22.8413C8.07275 23.0235 7.76579 23.0829 7.48079 23.0011C6.91294 22.8381 6.81629 22.165 6.49999 21.7454C6.18353 22.1652 6.08747 22.8379 5.5192 23.0011C5.2342 23.0829 4.92727 23.0235 4.69334 22.8413C2.83924 21.386 1.57993 19.6626 0.871722 17.7973C0.181245 15.9331 -0.0456129 13.7751 0.00737596 11.4183C0.122161 6.48255 1.94341 3.04239 5.96088 0.172772ZM8.03781 20.7154C9.198 19.6487 9.89713 18.4847 10.3911 17.1463C11.0127 15.5096 11.1919 13.702 11.138 11.4614C11.0485 7.61275 10.1479 5.10813 7.41944 2.78266V9.58473C8.48626 9.85928 8.96537 10.9057 8.96537 12.0582C8.96537 13.2107 8.48626 14.2571 7.41944 14.5317V20.097C7.41944 20.097 7.91519 20.554 8.03781 20.7154ZM4.94594 20.7154C3.7857 19.6487 3.1029 18.4847 2.60886 17.1463C1.98737 15.5096 1.80806 13.702 1.86198 11.4614C1.95131 7.62042 2.84723 5.10503 5.56431 2.78266V9.58473C4.49748 9.85928 4.01838 10.9057 4.01838 12.0582C4.01838 13.2107 4.49748 14.2571 5.56431 14.5317V20.097C5.56431 20.097 5.06397 20.56 4.94594 20.7154ZM6.49189 10.8215C5.80883 10.8215 5.25512 11.3752 5.25512 12.0582C5.25512 12.7413 5.80883 13.2949 6.49189 13.2949C7.17488 13.2949 7.72863 12.7413 7.72863 12.0582C7.72863 11.3752 7.17488 10.8215 6.49189 10.8215Z" fill="#1188EE"/>
</svg>
