<svg width="50" height="49" viewBox="0 0 50 49" fill="none" xmlns="http://www.w3.org/2000/svg">
<path fill-rule="evenodd" clip-rule="evenodd" d="M11.5547 8.48204C11.4073 8.47734 11.2605 8.50069 11.1232 8.55037C10.9859 8.60005 10.8611 8.67508 10.7563 8.771C10.7563 8.771 6.62969 12.5244 4.66947 14.6713C3.50113 15.9505 2.06342 17.2742 1.16772 19.0448C0.484049 20.3961 -0.0442442 21.944 0.0187775 23.5667C0.0785161 25.0937 0.748183 26.4343 1.37048 27.5965C2.3279 29.3847 4.6568 31.9427 4.6568 31.9427C4.74692 32.0442 4.8578 32.1282 4.98311 32.1902C5.10841 32.2521 5.24569 32.2907 5.3871 32.3036C5.52851 32.3165 5.67128 32.3034 5.80725 32.2653C5.94323 32.2272 6.06975 32.1646 6.1796 32.0813C6.28944 31.998 6.38045 31.8955 6.44743 31.7796C6.51441 31.6638 6.55606 31.537 6.56998 31.4062C6.5839 31.2755 6.56983 31.1434 6.52858 31.0177C6.48732 30.892 6.41968 30.7751 6.32953 30.6736C6.32953 30.6736 3.97524 27.9537 3.30932 26.7101C2.71574 25.6015 2.21659 24.5014 2.17727 23.4964C2.13216 22.3348 2.53449 21.0647 3.12769 19.8922C3.81381 18.5358 5.08058 17.3183 6.32108 15.9599C7.86471 14.2695 10.5717 11.7997 11.4533 10.989C12.2493 11.8209 14.4161 14.0525 15.538 15.6046C16.6302 17.1159 17.7006 18.5731 18.1696 20.0952C18.6186 21.5519 18.7506 23.1403 18.4779 24.5976C18.3051 25.5176 17.8318 26.4574 17.2149 27.2998C16.9507 27.6606 16.2546 28.3292 15.6563 28.8422C15.0579 29.355 14.5538 29.7403 14.5538 29.7403C14.4442 29.8242 14.3536 29.9272 14.287 30.0434C14.2205 30.1597 14.1794 30.2869 14.1661 30.4178C14.1527 30.5487 14.1674 30.6807 14.2093 30.8064C14.2511 30.932 14.3194 31.0487 14.4101 31.15C14.5008 31.2513 14.6122 31.3352 14.7379 31.3967C14.8636 31.4582 15.0012 31.4962 15.1428 31.5085C15.2844 31.5208 15.4273 31.5072 15.5632 31.4685C15.6991 31.4298 15.8255 31.3666 15.935 31.2828C15.935 31.2828 16.4803 30.8601 17.1262 30.3065C17.7721 29.7527 18.5124 29.0944 19.0059 28.4205C19.7495 27.4054 20.3687 26.2311 20.6111 24.9412C20.9478 23.1418 20.7785 21.2742 20.2478 19.5524C19.6467 17.6017 18.4149 15.9904 17.3374 14.4995C15.7816 12.347 12.3192 8.81786 12.3192 8.81786C12.2224 8.71795 12.1048 8.63716 11.9735 8.58015C11.8421 8.52313 11.6997 8.49126 11.5547 8.48618V8.48204Z" fill="#1188EE"/>
<path fill-rule="evenodd" clip-rule="evenodd" d="M14.4906 0.10593C11.7084 -0.3853 9.12493 0.933244 7.0731 1.98028C5.15768 2.95774 3.31474 4.31881 2.09293 6.12338C0.72492 8.14388 0.18219 10.53 0.0189143 12.7734C-0.0773332 14.1038 0.210642 15.7815 0.500457 17.2016C0.790273 18.6217 1.10027 19.7554 1.10027 19.7554L3.19541 19.2673C3.19541 19.2673 2.90165 18.1853 2.62516 16.8306C2.34867 15.4757 2.11145 13.8179 2.17741 12.9062C2.32557 10.8705 2.83301 8.80016 3.92617 7.18551C4.88308 5.7724 6.44122 4.58678 8.12067 3.72968C10.13 2.70423 12.3108 1.757 14.085 2.07009C15.6849 2.3526 17.2911 3.71281 18.3598 5.1823C19.4727 6.71257 19.9919 8.76892 19.9945 10.7194C19.9962 12.0214 19.0539 13.4968 18.5879 15.3546C18.3019 16.4954 17.9036 18.6347 17.9036 18.6347L20.0367 18.9744C20.0367 18.9744 20.4471 16.7951 20.6957 15.8036H20.6914C21.0459 14.3901 22.1598 12.7755 22.1571 10.7194C22.1541 8.45423 21.5863 6.03362 20.1549 4.0655C18.8913 2.3279 16.9969 0.548377 14.4906 0.10593Z" fill="#1188EE"/>
<path fill-rule="evenodd" clip-rule="evenodd" d="M1.75064 27.4246C1.75064 27.4246 0.489562 33.9384 0.589024 37.5187C0.643167 39.4996 0.365 42.004 1.80978 44.1219H1.80556C3.1729 46.1268 5.50859 47.6832 8.07407 48.1088C10.4974 48.5107 12.9854 47.7314 14.8917 46.539C17.0627 45.1813 18.6196 43.0441 19.4241 40.8145C20.2667 38.4793 19.6516 36.1454 19.572 34.1878C19.4874 32.0756 18.9933 28.1043 18.9933 28.1043L16.8432 28.3307C16.8432 28.3307 17.3375 32.3553 17.4135 34.2623C17.5031 36.4839 17.9599 38.5506 17.3712 40.1819C16.7039 42.0316 15.3657 43.8275 13.6836 44.8797C12.1594 45.833 10.1119 46.4153 8.45847 46.141C6.60508 45.8337 4.66604 44.562 3.63881 43.0559C2.70849 41.6921 2.81008 39.6019 2.75176 37.4682C2.66695 34.4157 3.88381 27.7684 3.88381 27.7684L1.75064 27.4246Z" fill="#1188EE"/>
<path fill-rule="evenodd" clip-rule="evenodd" d="M11.424 6.26002C11.1372 6.25901 10.8617 6.3632 10.6581 6.54996C10.4545 6.73671 10.3395 6.99063 10.3384 7.25577L10.292 9.55185C10.2891 9.68312 10.3143 9.81346 10.366 9.93575C10.4177 10.058 10.495 10.1698 10.5934 10.2645C10.6918 10.3592 10.8094 10.4351 10.9395 10.4878C11.0696 10.5405 11.2097 10.5689 11.3517 10.5715C11.4937 10.5741 11.6349 10.5507 11.7672 10.5029C11.8994 10.4551 12.0202 10.3838 12.1227 10.2928C12.2251 10.2018 12.3071 10.0931 12.3641 9.97285C12.4211 9.85257 12.4518 9.72315 12.4547 9.59187L12.5011 7.29189C12.5057 7.15832 12.4812 7.02509 12.4291 6.90042C12.3771 6.77576 12.2985 6.66218 12.1981 6.56606C12.0977 6.46994 11.9775 6.39323 11.8445 6.3408C11.7115 6.28837 11.5686 6.26049 11.424 6.26002Z" fill="#1188EE"/>
<path fill-rule="evenodd" clip-rule="evenodd" d="M38.4621 8.48187C38.3142 8.48485 38.1686 8.51582 38.0342 8.57291C37.8998 8.62999 37.7795 8.71201 37.6807 8.81379C37.6807 8.81379 34.2183 12.343 32.6625 14.4954C31.585 15.9863 30.3532 17.5976 29.7521 19.5484C29.2214 21.2702 29.0521 23.1377 29.3888 24.9371C29.6312 26.2271 30.2505 27.4011 30.994 28.4161C31.4875 29.0901 32.2278 29.7486 32.8737 30.3025C33.5196 30.8561 34.0649 31.2787 34.0649 31.2787C34.1744 31.3625 34.3008 31.4257 34.4367 31.4644C34.5726 31.5031 34.7155 31.5165 34.8571 31.5042C34.9987 31.4919 35.1363 31.4539 35.262 31.3924C35.3878 31.3309 35.4991 31.2472 35.5898 31.1459C35.6805 31.0446 35.7488 30.9277 35.7906 30.802C35.8325 30.6764 35.8472 30.5444 35.8338 30.4135C35.8205 30.2826 35.7794 30.1553 35.7129 30.0391C35.6463 29.9229 35.5557 29.8201 35.4461 29.7362C35.4461 29.7362 34.942 29.3509 34.3437 28.8381C33.7453 28.3251 33.0493 27.6566 32.785 27.2957C32.1682 26.4534 31.6949 25.5133 31.522 24.5932C31.2493 23.136 31.3813 21.5478 31.8303 20.0911C32.2994 18.5691 33.3698 17.1118 34.4619 15.6005C35.5838 14.0484 37.7506 11.8168 38.5466 10.9849C39.4282 11.7956 42.1352 14.2654 43.6788 15.9559C44.9193 17.3142 46.1861 18.5318 46.8722 19.8881C47.4654 21.0607 47.8678 22.3305 47.8226 23.4921C47.7833 24.4971 47.2842 25.5974 46.6906 26.706C46.0247 27.9496 43.6704 30.6695 43.6704 30.6695C43.5802 30.7711 43.5126 30.8879 43.4714 31.0136C43.4301 31.1393 43.4161 31.2712 43.43 31.4019C43.4439 31.5327 43.4856 31.6597 43.5525 31.7756C43.6195 31.8914 43.7105 31.9939 43.8204 32.0772C43.9302 32.1606 44.0567 32.2229 44.1927 32.261C44.3287 32.2991 44.4714 32.3122 44.6128 32.2993C44.7542 32.2864 44.8915 32.248 45.0168 32.1861C45.1421 32.1242 45.253 32.0399 45.3431 31.9384C45.3431 31.9384 47.672 29.3804 48.6294 27.5922C49.2517 26.43 49.9214 25.0897 49.9811 23.5626C50.0442 21.94 49.5159 20.3921 48.8322 19.0407C47.9365 17.2701 46.4988 15.9464 45.3304 14.6672C43.3702 12.5204 39.2436 8.76693 39.2436 8.76693C39.1408 8.67294 39.0187 8.59885 38.8845 8.54923C38.7503 8.49961 38.6067 8.4754 38.4621 8.47797V8.48187Z" fill="#1188EE"/>
<path fill-rule="evenodd" clip-rule="evenodd" d="M35.5095 0.10593C33.0032 0.548377 31.1087 2.3279 29.845 4.0655C28.4137 6.03362 27.8459 8.45423 27.8428 10.7194C27.8402 12.7755 28.954 14.3901 29.3086 15.8036H29.3043C29.5529 16.7951 29.9632 18.9744 29.9632 18.9744L32.0964 18.6347C32.0964 18.6347 31.6981 16.4954 31.4121 15.3546C30.9461 13.4968 30.0038 12.0214 30.0055 10.7194C30.0081 8.76892 30.5273 6.71257 31.6402 5.1823C32.7088 3.71281 34.3151 2.3526 35.9149 2.07009C37.6892 1.757 39.87 2.70423 41.8793 3.72968C43.5588 4.58678 45.1169 5.7724 46.0738 7.18551C47.167 8.80016 47.6744 10.8705 47.8226 12.9062C47.8885 13.8179 47.6513 15.4757 47.3748 16.8306C47.0983 18.1853 46.8046 19.2673 46.8046 19.2673L48.8997 19.7554C48.8997 19.7554 49.2097 18.6217 49.4995 17.2016C49.7893 15.7815 50.0773 14.1038 49.9811 12.7734C49.8178 10.53 49.275 8.14388 47.907 6.12338C46.6852 4.31881 44.8423 2.95774 42.9269 1.98028C40.875 0.933244 38.2917 -0.3853 35.5095 0.10593Z" fill="#1188EE"/>
<path fill-rule="evenodd" clip-rule="evenodd" d="M48.2492 27.4246L46.1161 27.7682C46.1161 27.7682 47.3329 34.4154 47.2481 37.468C47.1898 39.6016 47.2914 41.6921 46.3611 43.0559C45.3339 44.562 43.3948 45.8335 41.5414 46.1407C39.888 46.4151 37.8405 45.8327 36.3163 44.8795C34.6342 43.8272 33.296 42.0316 32.6287 40.1819C32.04 38.5506 32.4968 36.4837 32.5864 34.262C32.6624 32.3551 33.1567 28.3305 33.1567 28.3305L31.0066 28.104C31.0066 28.104 30.512 32.0803 30.4279 34.1918C30.3483 36.1493 29.7332 38.4832 30.5758 40.8184C31.3803 43.048 32.9372 45.185 35.1082 46.5427C37.0145 47.7351 39.5025 48.5146 41.9258 48.1127C44.4913 47.6871 46.827 46.1305 48.1943 44.1256H48.19C49.6348 42.0077 49.3566 39.5033 49.4108 37.5224C49.5102 33.942 48.2491 27.4285 48.2491 27.4285L48.2492 27.4246Z" fill="#1188EE"/>
<path fill-rule="evenodd" clip-rule="evenodd" d="M38.5425 6.25989C38.2564 6.26908 37.9859 6.38267 37.7903 6.57594C37.5947 6.76921 37.49 7.02626 37.4991 7.29078L37.5456 9.59077C37.5513 9.85589 37.6708 10.1082 37.8776 10.2919C38.0845 10.4757 38.3618 10.5757 38.6486 10.5704C38.9354 10.5651 39.2082 10.4549 39.4069 10.2636C39.6056 10.0724 39.7141 9.81587 39.7083 9.55074L39.6619 7.2549C39.6614 7.12094 39.6318 6.98833 39.5748 6.86515C39.5179 6.74196 39.4347 6.63076 39.3303 6.53787C39.2259 6.44497 39.1024 6.37245 38.967 6.32456C38.8317 6.27667 38.6873 6.25519 38.5425 6.25989Z" fill="#1188EE"/>
<path fill-rule="evenodd" clip-rule="evenodd" d="M5.5694 32.3956C5.44786 32.4008 5.33178 32.4438 5.23992 32.5176L1.41715 35.5202C1.30792 35.6062 1.2401 35.7287 1.22861 35.8609C1.21712 35.9931 1.2629 36.1241 1.35588 36.2251C1.44886 36.326 1.58142 36.3889 1.72441 36.3996C1.8674 36.4102 2.0091 36.3679 2.11834 36.2819L5.94112 33.2788C6.02779 33.2117 6.08951 33.1211 6.11759 33.0199C6.14567 32.9186 6.13871 32.8117 6.09768 32.7143C6.05665 32.6169 5.98362 32.5339 5.88885 32.4768C5.79409 32.4198 5.68237 32.3909 5.5694 32.3956Z" fill="#1188EE"/>
<path fill-rule="evenodd" clip-rule="evenodd" d="M6.33818 33.9848C6.19762 33.9888 6.06428 34.0432 5.96647 34.1366L1.18905 38.6429C1.13792 38.6895 1.09736 38.7451 1.06972 38.8064C1.04208 38.8677 1.02792 38.9335 1.02808 38.9999C1.02823 39.0663 1.04269 39.132 1.07062 39.1932C1.09854 39.2544 1.13936 39.3098 1.19071 39.3562C1.24205 39.4027 1.30289 39.4392 1.36966 39.4636C1.43643 39.4881 1.50781 39.4999 1.57961 39.4985C1.65142 39.4972 1.72222 39.4827 1.78788 39.4558C1.85355 39.4289 1.91276 39.3901 1.96205 39.3418L6.73947 34.8356C6.81556 34.7645 6.86686 34.674 6.88672 34.5757C6.90659 34.4774 6.89411 34.3759 6.8509 34.2843C6.80769 34.1926 6.73574 34.1152 6.64434 34.0617C6.55294 34.0082 6.44629 33.9817 6.33818 33.9848Z" fill="#1188EE"/>
<path fill-rule="evenodd" clip-rule="evenodd" d="M7.07734 36.1052C6.93875 36.1164 6.81015 36.1765 6.7183 36.2731L1.74658 41.4003C1.65082 41.4992 1.60148 41.6292 1.60941 41.7617C1.61734 41.8942 1.68189 42.0185 1.78887 42.107C1.89584 42.1956 2.03648 42.241 2.17985 42.2337C2.32322 42.2264 2.45758 42.1669 2.55337 42.068L7.52087 36.9409C7.59421 36.8667 7.64168 36.7738 7.65709 36.6743C7.6725 36.5749 7.65513 36.4734 7.60725 36.3832C7.55937 36.293 7.4832 36.2182 7.38868 36.1687C7.29415 36.1191 7.18566 36.0969 7.07734 36.1052Z" fill="#1188EE"/>
<path fill-rule="evenodd" clip-rule="evenodd" d="M7.83769 38.2255C7.69782 38.2388 7.56903 38.3019 7.47865 38.4015L2.79416 43.349C2.74493 43.3981 2.70687 43.4556 2.68225 43.5186C2.65762 43.5816 2.64693 43.6485 2.6508 43.7153C2.65467 43.7822 2.67303 43.8477 2.70479 43.9079C2.73655 43.968 2.78106 44.0218 2.83568 44.0658C2.89031 44.1097 2.95392 44.1431 3.02276 44.1639C3.0916 44.1847 3.16426 44.1925 3.23643 44.1868C3.30859 44.1812 3.37879 44.1622 3.44286 44.1309C3.50693 44.0997 3.56357 44.0568 3.60941 44.005L8.28967 39.0573C8.36229 38.9825 8.40884 38.8894 8.42326 38.7898C8.43767 38.6902 8.41928 38.5889 8.37049 38.4991C8.32169 38.4093 8.24476 38.335 8.14971 38.2863C8.05467 38.2375 7.94594 38.2163 7.83769 38.2255Z" fill="#1188EE"/>
<path fill-rule="evenodd" clip-rule="evenodd" d="M8.71199 39.639C8.63312 39.6437 8.55632 39.6643 8.48699 39.6993C8.41766 39.7344 8.35748 39.7832 8.3107 39.8421L4.29784 44.7896C4.25513 44.8422 4.22403 44.9019 4.20632 44.9656C4.18862 45.0292 4.18465 45.0955 4.19465 45.1606C4.20465 45.2257 4.22842 45.2882 4.26461 45.3448C4.30079 45.4014 4.34868 45.451 4.40553 45.4905C4.46239 45.53 4.52711 45.5586 4.59598 45.575C4.66486 45.5913 4.73655 45.5952 4.80696 45.586C4.87737 45.5767 4.94512 45.5547 5.00634 45.5213C5.06756 45.4878 5.12106 45.4435 5.16377 45.391L9.17663 40.4434C9.24034 40.3672 9.27886 40.2756 9.28756 40.1796C9.29627 40.0836 9.27478 39.9873 9.2257 39.9024C9.17661 39.8174 9.10201 39.7472 9.01087 39.7005C8.91974 39.6538 8.81595 39.6325 8.71199 39.639Z" fill="#1188EE"/>
<path fill-rule="evenodd" clip-rule="evenodd" d="M9.75975 41.6696C9.68127 41.6753 9.60507 41.6968 9.53649 41.7326C9.4679 41.7683 9.40859 41.8174 9.36269 41.8766L6.11016 45.9416C6.06725 45.9944 6.03607 46.0546 6.01842 46.1185C6.00077 46.1825 5.99701 46.2489 6.00734 46.3143C6.01767 46.3796 6.0419 46.4424 6.07863 46.499C6.11535 46.5556 6.16385 46.605 6.22131 46.6442C6.27878 46.6834 6.34407 46.7117 6.41343 46.7274C6.48278 46.7432 6.55482 46.7461 6.62539 46.736C6.69596 46.7259 6.76366 46.7028 6.82458 46.6684C6.8855 46.6339 6.93843 46.5886 6.98032 46.5351L10.2286 42.4701C10.2914 42.3936 10.3289 42.302 10.3368 42.2063C10.3447 42.1106 10.3226 42.0147 10.2731 41.9303C10.2237 41.8458 10.149 41.7764 10.0579 41.7301C9.96688 41.6839 9.86337 41.6629 9.75975 41.6696Z" fill="#1188EE"/>
<path fill-rule="evenodd" clip-rule="evenodd" d="M10.7187 43.6142C10.6215 43.6199 10.5278 43.6497 10.4475 43.7005C10.3673 43.7514 10.3033 43.8214 10.2625 43.9031L9.02059 46.289C8.95844 46.4086 8.95023 46.546 8.99777 46.6712C9.0453 46.7964 9.14469 46.899 9.27407 46.9565C9.40345 47.014 9.55222 47.0217 9.68767 46.9777C9.82312 46.9338 9.93415 46.842 9.99634 46.7225L11.2382 44.3366C11.2809 44.2578 11.3002 44.1701 11.2944 44.0823C11.2886 43.9944 11.2577 43.9093 11.205 43.836C11.1523 43.7627 11.0795 43.7037 10.9941 43.6647C10.9087 43.6257 10.8137 43.6083 10.7187 43.6142Z" fill="#1188EE"/>
<path fill-rule="evenodd" clip-rule="evenodd" d="M7.06026 5.1354C6.9197 5.13944 6.78636 5.1938 6.68855 5.2872L1.21416 10.2855C1.16226 10.3313 1.12075 10.3862 1.09206 10.447C1.06337 10.5079 1.04807 10.5735 1.04705 10.6398C1.04604 10.7062 1.05933 10.7721 1.08614 10.8336C1.11296 10.8952 1.15277 10.9512 1.20325 10.9984C1.25373 11.0456 1.31387 11.083 1.38016 11.1084C1.44645 11.1339 1.51757 11.1469 1.58936 11.1467C1.66115 11.1466 1.73218 11.1333 1.7983 11.1075C1.86442 11.0816 1.92432 11.0436 1.97449 10.9962L7.44465 5.99789C7.52416 5.92846 7.57901 5.83853 7.60199 5.73968C7.62496 5.64083 7.61497 5.53787 7.57333 5.44437C7.5317 5.35088 7.46037 5.27118 7.36877 5.21594C7.27717 5.1607 7.1696 5.13296 7.06026 5.1354Z" fill="#1188EE"/>
<path fill-rule="evenodd" clip-rule="evenodd" d="M7.02252 7.6346C6.94413 7.63226 6.86612 7.64559 6.79391 7.6739C6.7217 7.7022 6.65701 7.74463 6.60434 7.79836L0.927201 13.4214C0.878654 13.4694 0.840798 13.5257 0.815796 13.5871C0.790794 13.6486 0.779135 13.7141 0.781485 13.7797C0.783834 13.8453 0.800146 13.91 0.829489 13.9698C0.858832 14.0296 0.900633 14.0836 0.952502 14.1285C1.00437 14.1733 1.06529 14.2081 1.13179 14.2312C1.19829 14.2543 1.26906 14.2651 1.34006 14.2629C1.41106 14.2607 1.4809 14.2456 1.54559 14.2185C1.61029 14.1914 1.66856 14.1527 1.7171 14.1048L7.39424 8.48172C7.46711 8.41213 7.51654 8.32468 7.53652 8.22961C7.55651 8.13454 7.54618 8.03601 7.50681 7.94626C7.46744 7.85651 7.4007 7.77927 7.31473 7.72393C7.22876 7.66858 7.12724 7.63761 7.02252 7.6346Z" fill="#1188EE"/>
<path fill-rule="evenodd" clip-rule="evenodd" d="M7.00544 10.4461C6.86463 10.447 6.72975 10.4987 6.62949 10.5901L1.69579 14.9009C1.63829 14.9442 1.59107 14.9983 1.55706 15.0593C1.52305 15.1202 1.50299 15.187 1.49811 15.2555C1.49324 15.3239 1.50367 15.3925 1.52874 15.4571C1.55381 15.5216 1.59299 15.5809 1.64385 15.6308C1.6947 15.6808 1.75614 15.7204 1.82433 15.7475C1.89253 15.7746 1.96602 15.7883 2.04024 15.788C2.11445 15.7877 2.1878 15.7735 2.25572 15.7458C2.32363 15.7181 2.38466 15.6778 2.435 15.6274L7.36871 11.3162C7.44981 11.2484 7.50678 11.1594 7.53211 11.0611C7.55744 10.9628 7.54994 10.8599 7.5106 10.7656C7.47126 10.6713 7.40193 10.5901 7.31174 10.533C7.22156 10.4759 7.11476 10.446 7.00544 10.4461Z" fill="#1188EE"/>
<path fill-rule="evenodd" clip-rule="evenodd" d="M35.1715 32.3956C35.05 32.4008 34.9339 32.4438 34.8421 32.5176L31.0193 35.5202C30.91 35.6062 30.8422 35.7287 30.8307 35.8609C30.8192 35.9931 30.865 36.1241 30.958 36.2251C31.051 36.326 31.1835 36.3889 31.3265 36.3996C31.4695 36.4102 31.6112 36.3679 31.7205 36.2819L35.5433 33.2788C35.6299 33.2117 35.6916 33.1211 35.7197 33.0199C35.7478 32.9186 35.7408 32.8117 35.6998 32.7143C35.6588 32.6169 35.5857 32.5339 35.491 32.4768C35.3962 32.4198 35.2845 32.3909 35.1715 32.3956Z" fill="#1188EE"/>
<path fill-rule="evenodd" clip-rule="evenodd" d="M35.9403 33.9848C35.7997 33.9888 35.6664 34.0432 35.5686 34.1366L30.7912 38.6429C30.74 38.6895 30.6995 38.7451 30.6718 38.8064C30.6442 38.8677 30.63 38.9335 30.6302 38.9999C30.6303 39.0663 30.6448 39.132 30.6727 39.1932C30.7006 39.2544 30.7415 39.3098 30.7928 39.3562C30.8442 39.4027 30.905 39.4392 30.9718 39.4636C31.0385 39.4881 31.1099 39.4998 31.1817 39.4985C31.2535 39.4972 31.3243 39.4827 31.39 39.4558C31.4557 39.4289 31.5149 39.3901 31.5642 39.3418L36.3416 34.8356C36.4177 34.7645 36.469 34.674 36.4888 34.5757C36.5087 34.4774 36.4962 34.3759 36.453 34.2843C36.4098 34.1926 36.3378 34.1152 36.2464 34.0617C36.155 34.0082 36.0484 33.9817 35.9403 33.9848Z" fill="#1188EE"/>
<path fill-rule="evenodd" clip-rule="evenodd" d="M36.6796 36.1052C36.541 36.1164 36.4124 36.1765 36.3205 36.2731L31.3488 41.4003C31.3014 41.4492 31.2649 41.5064 31.2413 41.5684C31.2178 41.6304 31.2077 41.6961 31.2116 41.7617C31.2195 41.8943 31.2841 42.0185 31.391 42.107C31.498 42.1956 31.6387 42.2413 31.7821 42.2339C31.9255 42.2266 32.0598 42.1669 32.1556 42.068L37.1231 36.9409C37.1965 36.8667 37.2439 36.7738 37.2593 36.6743C37.2747 36.5749 37.2574 36.4734 37.2095 36.3832C37.1616 36.293 37.0854 36.2182 36.9909 36.1687C36.8964 36.1191 36.7879 36.0969 36.6796 36.1052Z" fill="#1188EE"/>
<path fill-rule="evenodd" clip-rule="evenodd" d="M37.4401 38.2255C37.3002 38.2388 37.1714 38.3019 37.081 38.4015L32.3965 43.349C32.3473 43.3981 32.3092 43.4556 32.2846 43.5186C32.26 43.5816 32.2493 43.6485 32.2532 43.7153C32.257 43.7822 32.2754 43.8477 32.3071 43.9079C32.3389 43.968 32.3834 44.0218 32.438 44.0658C32.4927 44.1097 32.5563 44.1431 32.6251 44.1639C32.694 44.1847 32.7666 44.1925 32.8388 44.1868C32.9109 44.1812 32.9811 44.1622 33.0452 44.1309C33.1093 44.0997 33.1659 44.0568 33.2118 44.005L37.892 39.0573C37.9646 38.9825 38.0112 38.8894 38.0256 38.7898C38.04 38.6902 38.0216 38.5889 37.9728 38.4991C37.9241 38.4093 37.8471 38.335 37.7521 38.2863C37.657 38.2375 37.5483 38.2163 37.4401 38.2255Z" fill="#1188EE"/>
<path fill-rule="evenodd" clip-rule="evenodd" d="M38.3142 39.639C38.2353 39.6437 38.1585 39.6643 38.0892 39.6993C38.0198 39.7344 37.9597 39.7832 37.9129 39.8421L33.9 44.7896C33.8573 44.8422 33.8262 44.9019 33.8085 44.9656C33.7908 45.0292 33.7868 45.0955 33.7968 45.1606C33.8068 45.2257 33.8306 45.2882 33.8668 45.3448C33.903 45.4014 33.9509 45.451 34.0077 45.4905C34.0646 45.53 34.1293 45.5586 34.1982 45.575C34.267 45.5913 34.3387 45.5952 34.4091 45.586C34.4795 45.5767 34.5473 45.5547 34.6085 45.5213C34.6697 45.4878 34.7232 45.4435 34.7659 45.391L38.7788 40.4434C38.8425 40.3672 38.881 40.2756 38.8897 40.1796C38.8984 40.0836 38.877 39.9873 38.8279 39.9024C38.7788 39.8174 38.7042 39.7472 38.6131 39.7005C38.5219 39.6538 38.4181 39.6325 38.3142 39.639Z" fill="#1188EE"/>
<path fill-rule="evenodd" clip-rule="evenodd" d="M39.3619 41.6696C39.2834 41.6753 39.2072 41.6968 39.1386 41.7326C39.0701 41.7683 39.0108 41.8174 38.9649 41.8766L35.7123 45.9416C35.6694 45.9944 35.6382 46.0546 35.6206 46.1185C35.6029 46.1825 35.5992 46.2489 35.6095 46.3143C35.6198 46.3796 35.6441 46.4424 35.6808 46.499C35.7175 46.5556 35.766 46.605 35.8235 46.6442C35.881 46.6834 35.9462 46.7117 36.0156 46.7274C36.085 46.7432 36.157 46.7461 36.2276 46.736C36.2981 46.7259 36.3658 46.7028 36.4267 46.6684C36.4877 46.6339 36.5406 46.5886 36.5825 46.5351L39.8308 42.4701C39.8935 42.3936 39.9311 42.302 39.939 42.2063C39.9469 42.1106 39.9247 42.0147 39.8753 41.9303C39.8258 41.8458 39.7511 41.7764 39.6601 41.7301C39.569 41.6839 39.4655 41.6629 39.3619 41.6696Z" fill="#1188EE"/>
<path fill-rule="evenodd" clip-rule="evenodd" d="M40.3206 43.6142C40.2234 43.6199 40.1298 43.6497 40.0495 43.7005C39.9692 43.7514 39.9052 43.8214 39.8644 43.9031L38.6225 46.289C38.5917 46.3482 38.5738 46.4125 38.5699 46.4782C38.566 46.5438 38.5761 46.6094 38.5996 46.6714C38.6471 46.7967 38.7465 46.8993 38.8759 46.9567C39.0053 47.0142 39.1541 47.0217 39.2896 46.9777C39.425 46.9338 39.5361 46.8421 39.5983 46.7225L40.8401 44.3366C40.8828 44.2578 40.9022 44.1701 40.8963 44.0823C40.8905 43.9944 40.8597 43.9093 40.8069 43.836C40.7542 43.7627 40.6814 43.7037 40.596 43.6647C40.5106 43.6257 40.4156 43.6083 40.3206 43.6142Z" fill="#1188EE"/>
</svg>
